<svg width="50" height="50" viewBox="0 0 50 50" fill="none" xmlns="http://www.w3.org/2000/svg">
<path d="M24.375 5.84375C24.5721 5.75771 24.7849 5.7133 25 5.7133C25.2151 5.7133 25.4279 5.75771 25.625 5.84375C33.3293 9.21125 40.6782 13.3394 47.5625 18.1667C47.8051 18.3368 47.9943 18.5724 48.1081 18.846C48.2219 19.1196 48.2555 19.42 48.2051 19.712C48.1546 20.004 48.0222 20.2756 47.8232 20.4952C47.6242 20.7147 47.3669 20.8732 47.0812 20.9521C39.9341 22.926 33.0185 25.6582 26.4521 29.1021L26.4458 29.1062L25.7375 29.4812C25.5109 29.6023 25.258 29.6657 25.001 29.6657C24.7441 29.6657 24.4912 29.6023 24.2646 29.4812C21.4493 27.9767 18.5664 26.6023 15.625 25.3625V24.8958C15.6236 24.7661 15.6558 24.6381 15.7186 24.5246C15.7814 24.411 15.8727 24.3157 15.9833 24.2479C19.1279 22.3423 22.3629 20.5903 25.6771 18.9979C26.0506 18.8183 26.3375 18.4977 26.4746 18.1067C26.6117 17.7156 26.5879 17.286 26.4083 16.9125C26.2288 16.539 25.9082 16.2521 25.5171 16.115C25.126 15.9778 24.6964 16.0017 24.3229 16.1812C20.9183 17.8173 17.595 19.6173 14.3646 21.575C13.905 21.8538 13.5085 22.2253 13.2004 22.6657C12.8923 23.1062 12.6793 23.606 12.575 24.1333C9.41085 22.9158 6.18893 21.8541 2.92083 20.9521C2.6352 20.8732 2.37788 20.7147 2.1789 20.4952C1.97992 20.2756 1.84748 20.004 1.79703 19.712C1.74658 19.42 1.7802 19.1196 1.89397 18.846C2.00774 18.5724 2.19697 18.3368 2.43958 18.1667C9.32322 13.3395 16.6714 9.21141 24.375 5.84375Z" fill="#0A529D"/>
<path d="M27.2083 32.2354C32.3255 29.5015 37.6689 27.2139 43.1792 25.3979C43.4607 28.3665 43.6379 31.344 43.7104 34.325C43.7181 34.6393 43.6307 34.9487 43.4597 35.2126C43.2887 35.4765 43.0421 35.6827 42.7521 35.8042C36.8464 38.2707 31.1919 41.3 25.8667 44.85C25.61 45.0211 25.3085 45.1124 25 45.1124C24.6915 45.1124 24.39 45.0211 24.1333 44.85C18.8088 41.3001 13.1549 38.2709 7.25 35.8042C6.95958 35.683 6.71252 35.477 6.54115 35.213C6.36978 34.9491 6.2821 34.6396 6.28958 34.325C6.3625 31.3208 6.54166 28.3458 6.82083 25.3958C8.73406 26.0264 10.628 26.7143 12.5 27.4583V30.1042C12.0499 30.3635 11.6715 30.731 11.3991 31.1734C11.1267 31.6157 10.9689 32.119 10.9399 32.6377C10.911 33.1564 11.0118 33.6741 11.2333 34.1441C11.4547 34.614 11.7899 35.0213 12.2083 35.3292C12.0208 36.1208 11.7458 36.8979 11.3812 37.6417C12.3229 38.0854 13.2583 38.5458 14.1854 39.0187C14.7081 37.9551 15.0938 36.8294 15.3333 35.6687C15.8602 35.4345 16.3119 35.0591 16.6386 34.584C16.9653 34.1089 17.1542 33.5527 17.1844 32.9769C17.2146 32.4011 17.0849 31.8282 16.8097 31.3216C16.5345 30.8149 16.1245 30.3943 15.625 30.1062V28.7625C18.0586 29.8263 20.4493 30.9855 22.7917 32.2375C23.4712 32.6004 24.2296 32.7903 25 32.7903C25.7703 32.7903 26.5288 32.6004 27.2083 32.2375V32.2354Z" fill="#0A529D"/>
<path d="M9.29584 40.5458C10.1708 39.6729 10.8646 38.6917 11.3792 37.6417C12.3229 38.0854 13.2583 38.5458 14.1854 39.0187C13.5037 40.4033 12.5985 41.666 11.5063 42.7562C11.3632 42.9098 11.1907 43.0329 10.999 43.1183C10.8074 43.2037 10.6005 43.2496 10.3907 43.2533C10.1809 43.257 9.97249 43.2184 9.77793 43.1398C9.58337 43.0613 9.40663 42.9443 9.25826 42.7959C9.10989 42.6475 8.99292 42.4708 8.91433 42.2762C8.83575 42.0817 8.79715 41.8733 8.80086 41.6635C8.80456 41.4537 8.85048 41.2468 8.93588 41.0551C9.02128 40.8635 9.14441 40.691 9.29792 40.5479L9.29584 40.5458Z" fill="#0A529D"/>
</svg>
