<svg width="50" height="50" viewBox="0 0 50 50" fill="none" xmlns="http://www.w3.org/2000/svg">
<path d="M25 26.0417C23.0661 26.0417 21.2115 26.8099 19.844 28.1773C18.4766 29.5448 17.7083 31.3995 17.7083 33.3333C17.7083 35.2672 18.4766 37.1219 19.844 38.4893C21.2115 39.8568 23.0661 40.625 25 40.625C26.9339 40.625 28.7885 39.8568 30.156 38.4893C31.5234 37.1219 32.2917 35.2672 32.2917 33.3333C32.2917 31.3995 31.5234 29.5448 30.156 28.1773C28.7885 26.8099 26.9339 26.0417 25 26.0417ZM21.875 33.3333C21.875 32.5045 22.2042 31.7097 22.7903 31.1236C23.3764 30.5376 24.1712 30.2083 25 30.2083C25.8288 30.2083 26.6237 30.5376 27.2097 31.1236C27.7958 31.7097 28.125 32.5045 28.125 33.3333C28.125 34.1621 27.7958 34.957 27.2097 35.543C26.6237 36.1291 25.8288 36.4583 25 36.4583C24.1712 36.4583 23.3764 36.1291 22.7903 35.543C22.2042 34.957 21.875 34.1621 21.875 33.3333Z" fill="#0A529D"/>
<path d="M36.5125 10.6583L29.8896 1.37292L5.5375 20.8271L4.1875 20.8125V20.8333H3.125V45.8333H46.875V20.8333H44.8708L40.8833 9.16875L36.5125 10.6583ZM40.4687 20.8333H19.5771L35.1375 15.5292L38.3083 14.5146L40.4687 20.8333ZM32.3958 12.0625L16.3333 17.5375L29.0542 7.375L32.3958 12.0625ZM7.29167 37.8521V28.8104C8.17061 28.499 8.96897 27.9953 9.62853 27.3361C10.2881 26.6769 10.7922 25.8788 11.1042 25H38.8958C39.2076 25.8791 39.7117 26.6775 40.3713 27.3371C41.0308 27.9966 41.8292 28.5007 42.7083 28.8125V37.8542C41.8292 38.166 41.0308 38.67 40.3713 39.3296C39.7117 39.9891 39.2076 40.7876 38.8958 41.6667H11.1083C10.7962 40.7868 10.2916 39.9878 9.63129 39.3278C8.97099 38.6679 8.17167 38.1637 7.29167 37.8521Z" fill="#0A529D"/>
</svg>
